# xmcd CD database file
#
# Track frame offsets:
#	150
#	26657
#	50197
#	82525
#	103340
#	135132
#	166609
#	179059
#	198367
#	210940
#	230825
#	261460
#	299555
#
# Disc length: 4190 seconds
#
# Revision: 0
# Processed by: cddbd v1.5.1PL0 Copyright (c) Steve Scherf et al.
# Submitted via: CDex 1.60beta1-cs1
#
DISCID=b9105c0d
DTITLE=Brad Dutz and John Holmes - Duets for Percussion
DYEAR=1997
DGENRE=Jazz
TTITLE0=Spit it out
TTITLE1=Limp forever
TTITLE2=Jordan retires
TTITLE3=Feed the lizard
TTITLE4=Beyond the ancient
TTITLE5=Displace the kits
TTITLE6=Strong coffee
TTITLE7=Ornette's quest
TTITLE8=Zero zone
TTITLE9=Trains
TTITLE10=Waaay too much!
TTITLE11=Coup
TTITLE12=No, it's fern
EXTD=YEAR: 1997
EXTT0=
EXTT1=
EXTT2=
EXTT3=
EXTT4=
EXTT5=
EXTT6=
EXTT7=
EXTT8=
EXTT9=
EXTT10=
EXTT11=
EXTT12=
PLAYORDER=
